<svg width="32" height="32" viewBox="0 0 32 32" fill="none" xmlns="http://www.w3.org/2000/svg">
<path d="M31.1053 5.37269H8.75166L8.10324 1.64217H2.4485C1.99376 1.64217 1.60359 1.80497 1.27797 2.13059C0.952358 2.4562 0.789551 2.84638 0.789551 3.30111V4.95585H5.32008L8.2506 21.9201C8.27025 22.0997 8.35867 22.2583 8.51587 22.3958C8.67306 22.5334 8.85131 22.6022 9.0506 22.6022H28.6169C29.0717 22.6022 29.4618 22.4394 29.7874 22.1137C30.1131 21.7881 30.2759 21.398 30.2759 20.9432V19.2843H11.1517L10.739 16.9474H25.8632C26.7727 16.9474 27.6078 16.626 28.3685 15.9832C29.1264 15.3432 29.5755 14.5797 29.7159 13.6927L31.1053 5.37269ZM17.0127 27.4864C17.0127 28.2751 16.732 28.9516 16.1706 29.5159C15.6064 30.0773 14.9299 30.358 14.1411 30.358C13.3524 30.358 12.6815 30.0773 12.1285 29.5159C11.5755 28.9516 11.299 28.2751 11.299 27.4864C11.299 26.6976 11.5755 26.0267 12.1285 25.4737C12.6815 24.9208 13.3524 24.6443 14.1411 24.6443C14.9299 24.6443 15.6064 24.9208 16.1706 25.4737C16.732 26.0267 17.0127 26.6976 17.0127 27.4864ZM21.219 27.4864C21.219 28.2751 21.4997 28.9516 22.0611 29.5159C22.6225 30.0773 23.299 30.358 24.0906 30.358C24.8794 30.358 25.5503 30.0773 26.1032 29.5159C26.6562 28.9516 26.9327 28.2751 26.9327 27.4864C26.9327 26.6976 26.6562 26.0211 26.1032 25.4569C25.5503 24.8955 24.8794 24.6148 24.0906 24.6148C23.299 24.6148 22.6225 24.8955 22.0611 25.4569C21.4997 26.0211 21.219 26.6976 21.219 27.4864Z" fill="white"/>
</svg>
