<svg width="29" height="29" viewBox="0 0 29 29" fill="none" xmlns="http://www.w3.org/2000/svg">
<path d="M14.4842 16.9651C15.2571 16.9651 15.9252 16.6887 16.4884 16.1359C17.0491 15.5831 17.3294 14.9202 17.3294 14.1474C17.3294 13.833 17.2796 13.5382 17.1801 13.2632C17.0779 12.9881 16.9443 12.73 16.7792 12.489C16.5199 12.1405 16.1924 11.8602 15.7968 11.648C15.4012 11.4358 14.9637 11.3297 14.4842 11.3297C14.0048 11.3297 13.5673 11.4358 13.1717 11.648C12.7761 11.8602 12.4486 12.1405 12.1892 12.489C12.0242 12.73 11.8958 12.9881 11.8041 13.2632C11.7124 13.5382 11.6665 13.833 11.6665 14.1474C11.6482 14.9202 11.9194 15.5831 12.48 16.1359C13.0433 16.6887 13.7114 16.9651 14.4842 16.9651ZM17.9385 10.6931H20.6737V7.95789H17.9385V10.6931ZM14.4842 0C12.5324 0 10.6998 0.368094 8.9864 1.10428C7.27299 1.86143 5.77573 2.87925 4.49461 4.15775C3.2161 5.43888 2.19828 6.93614 1.44113 8.64954C0.704947 10.3629 0.336853 12.1956 0.336853 14.1474C0.336853 16.0992 0.704947 17.9318 1.44113 19.6452C2.19828 21.3586 3.2161 22.8559 4.49461 24.137C5.77573 25.4155 7.27299 26.4333 8.9864 27.1905C10.6998 27.9266 12.5324 28.2947 14.4842 28.2947C16.436 28.2947 18.2686 27.9266 19.982 27.1905C21.6954 26.4333 23.1927 25.4155 24.4738 24.137C25.7523 22.8559 26.7702 21.3586 27.5273 19.6452C28.2635 17.9318 28.6316 16.0992 28.6316 14.1474C28.6316 12.1956 28.2635 10.3629 27.5273 8.64954C26.7702 6.93614 25.7523 5.43888 24.4738 4.15775C23.1927 2.87925 21.6954 1.86143 19.982 1.10428C18.2686 0.368094 16.436 0 14.4842 0ZM22.5246 9.19972V12.489V19.095C22.5246 19.9412 22.2207 20.6683 21.6129 21.2761C21.0051 21.8839 20.2781 22.1878 19.4319 22.1878H9.53657C8.69035 22.1878 7.96333 21.8839 7.35552 21.2761C6.74771 20.6683 6.4438 19.9412 6.4438 19.095V9.19972C6.4438 8.3535 6.74771 7.62648 7.35552 7.01867C7.96333 6.41085 8.69035 6.10695 9.53657 6.10695H19.4319C20.2781 6.10695 21.0051 6.41085 21.6129 7.01867C22.2207 7.62648 22.5246 8.3535 22.5246 9.19972ZM18.8778 14.1474C18.8778 15.363 18.4494 16.3992 17.5927 17.2559C16.736 18.1126 15.6998 18.5409 14.4842 18.5409C13.2686 18.5409 12.2324 18.1126 11.3757 17.2559C10.519 16.3992 10.0907 15.363 10.0907 14.1474C10.0907 13.8539 10.1182 13.5684 10.1732 13.2907C10.2282 13.0156 10.3016 12.7484 10.3933 12.489H8.01966V19.095C8.01966 19.5168 8.16637 19.8757 8.4598 20.1718C8.75585 20.4652 9.11477 20.6119 9.53657 20.6119H19.4319C19.8537 20.6119 20.2126 20.4652 20.5086 20.1718C20.8021 19.8757 20.9488 19.5168 20.9488 19.095V12.489H18.5477C18.6577 12.7484 18.7402 13.0156 18.7952 13.2907C18.8503 13.5684 18.8778 13.8539 18.8778 14.1474Z" fill="#D4D4D4"/>
</svg>
