<svg width="29" height="29" viewBox="0 0 29 29" fill="none" xmlns="http://www.w3.org/2000/svg">
<path d="M14.1474 0C12.1956 0 10.3629 0.368094 8.64954 1.10428C6.93614 1.86143 5.43888 2.87925 4.15775 4.15775C2.87925 5.43888 1.86143 6.93614 1.10428 8.64954C0.368094 10.3629 0 12.1956 0 14.1474C0 16.0992 0.368094 17.9318 1.10428 19.6452C1.86143 21.3586 2.87925 22.8559 4.15775 24.137C5.43888 25.4155 6.93614 26.4333 8.64954 27.1905C10.3629 27.9266 12.1956 28.2947 14.1474 28.2947C16.0992 28.2947 17.9318 27.9266 19.6452 27.1905C21.3586 26.4333 22.8559 25.4155 24.137 24.137C25.4155 22.8559 26.4333 21.3586 27.1905 19.6452C27.9266 17.9318 28.2947 16.0992 28.2947 14.1474C28.2947 12.1956 27.9266 10.3629 27.1905 8.64954C26.4333 6.93614 25.4155 5.43888 24.137 4.15775C22.8559 2.87925 21.3586 1.86143 19.6452 1.10428C17.9318 0.368094 16.0992 0 14.1474 0ZM20.4469 10.9131C20.4652 10.9865 20.4744 11.0559 20.4744 11.1214C20.4744 11.1869 20.4744 11.2563 20.4744 11.3297C20.4744 12.4169 20.2713 13.5042 19.8653 14.5914C19.4618 15.6944 18.8684 16.6887 18.0851 17.5742C17.3017 18.4571 16.3297 19.1841 15.1691 19.7552C14.0269 20.308 12.7012 20.5844 11.1921 20.5844C10.2883 20.5844 9.41324 20.46 8.56702 20.2111C7.71817 19.9622 6.93483 19.5993 6.21698 19.1225C6.34536 19.1409 6.47373 19.154 6.60211 19.1618C6.7331 19.1723 6.86278 19.1775 6.99116 19.1775C7.74568 19.1775 8.46877 19.0531 9.16042 18.8042C9.85207 18.5553 10.473 18.2187 11.0232 17.7942C10.3236 17.7759 9.69357 17.5545 9.13291 17.1301C8.56964 16.7083 8.18713 16.1752 7.9854 15.5307C8.09544 15.549 8.20154 15.5621 8.30372 15.57C8.40589 15.5804 8.50283 15.5857 8.59453 15.5857C8.74124 15.5857 8.88795 15.5765 9.03467 15.5582C9.18138 15.5398 9.32023 15.5123 9.45123 15.4756C8.71242 15.3263 8.09544 14.953 7.60028 14.3556C7.1025 13.7557 6.85361 13.0601 6.85361 12.2689C6.85361 12.2689 6.85361 12.2637 6.85361 12.2532C6.85361 12.2453 6.85361 12.2414 6.85361 12.2414C7.07368 12.3514 7.30816 12.4431 7.55705 12.5165C7.80594 12.5898 8.05876 12.6357 8.31551 12.654C7.89371 12.3606 7.54919 11.9742 7.28197 11.4947C7.01474 11.0153 6.88112 10.49 6.88112 9.91888C6.88112 9.62545 6.9178 9.33988 6.99116 9.06217C7.06452 8.78709 7.17455 8.52903 7.32126 8.288C8.11509 9.28356 9.0923 10.0852 10.2529 10.6931C11.4135 11.3009 12.675 11.6323 14.0373 11.6873C14.0007 11.5773 13.9771 11.4581 13.9666 11.3297C13.9587 11.2013 13.9548 11.0716 13.9548 10.9406C13.9548 10.0577 14.2718 9.29797 14.9058 8.66133C15.5425 8.02732 16.3022 7.71032 17.1851 7.71032C17.6646 7.71032 18.1073 7.80201 18.5134 7.9854C18.9195 8.1688 19.2692 8.41768 19.5627 8.73207C19.9504 8.65871 20.3146 8.55261 20.6552 8.41375C20.9957 8.2749 21.3219 8.11378 21.6337 7.93039C21.5236 8.31813 21.3442 8.66395 21.0953 8.96786C20.8464 9.27177 20.5477 9.52458 20.1993 9.72632C20.5294 9.68964 20.8516 9.62938 21.166 9.54554C21.4778 9.46433 21.7817 9.35822 22.0778 9.22723C21.8577 9.55995 21.614 9.86386 21.3468 10.1389C21.0796 10.4167 20.7796 10.6747 20.4469 10.9131Z" fill="#D4D4D4"/>
</svg>
