<svg width="29" height="29" viewBox="0 0 29 29" fill="none" xmlns="http://www.w3.org/2000/svg">
<path d="M14.8105 0C12.8587 0 11.0261 0.368094 9.31269 1.10428C7.59929 1.86143 6.10202 2.87925 4.8209 4.15775C3.5424 5.43888 2.52457 6.93614 1.76743 8.64954C1.03124 10.3629 0.663147 12.1956 0.663147 14.1474C0.663147 16.0992 1.03124 17.9318 1.76743 19.6452C2.52457 21.3586 3.5424 22.8559 4.8209 24.137C6.10202 25.4155 7.59929 26.4333 9.31269 27.1905C11.0261 27.9266 12.8587 28.2947 14.8105 28.2947C16.7623 28.2947 18.5949 27.9266 20.3083 27.1905C22.0217 26.4333 23.519 25.4155 24.8001 24.137C26.0786 22.8559 27.0965 21.3586 27.8536 19.6452C28.5898 17.9318 28.9579 16.0992 28.9579 14.1474C28.9579 12.1956 28.5898 10.3629 27.8536 8.64954C27.0965 6.93614 26.0786 5.43888 24.8001 4.15775C23.519 2.87925 22.0217 1.86143 20.3083 1.10428C18.5949 0.368094 16.7623 0 14.8105 0ZM18.3198 14.6465H16.0248C16.0248 15.566 16.0248 16.5144 16.0248 17.4916C16.0248 18.4479 16.0248 19.3269 16.0248 20.1286C16.0248 20.9302 16.0248 21.58 16.0248 22.0778C16.0248 22.5939 16.0248 22.8519 16.0248 22.8519H12.6295C12.6295 22.8519 12.6295 22.5939 12.6295 22.0778C12.6295 21.58 12.6295 20.9355 12.6295 20.1443C12.6295 19.3505 12.6295 18.4662 12.6295 17.4916C12.6295 16.5328 12.6295 15.5844 12.6295 14.6465H10.9986V11.7423H12.6295V9.86386C12.6295 9.20103 12.8495 8.46484 13.2897 7.6553C13.7324 6.84313 14.6533 6.43705 16.0523 6.43705H18.5949V9.25474C18.5949 9.25474 18.3238 9.25474 17.7815 9.25474C17.2365 9.25474 16.8907 9.25474 16.744 9.25474C16.5973 9.25474 16.4414 9.30582 16.2763 9.408C16.1087 9.51018 16.0248 9.71715 16.0248 10.0289V11.7423H18.6224L18.3198 14.6465Z" fill="#D4D4D4"/>
</svg>
