<svg width="29" height="29" viewBox="0 0 29 29" fill="none" xmlns="http://www.w3.org/2000/svg">
<path d="M12.9151 16.4974C12.8784 16.4607 12.8365 16.428 12.7894 16.3992C12.7448 16.373 12.695 16.3402 12.64 16.3009C12.4907 16.2459 12.3427 16.2092 12.196 16.1909C12.0492 16.1725 11.8934 16.1634 11.7283 16.1634H11.6969C10.979 16.1634 10.3529 16.3481 9.81841 16.7175C9.28395 17.0869 9.01672 17.5192 9.01672 18.0143C9.01672 18.5488 9.25251 19.0007 9.72409 19.3701C10.1931 19.7395 10.7681 19.9242 11.4493 19.9242C12.3715 19.9242 13.0579 19.7723 13.5085 19.4684C13.9591 19.1644 14.1844 18.6981 14.1844 18.0693C14.1844 18.0143 14.1805 17.9593 14.1727 17.9043C14.1622 17.8493 14.1569 17.7851 14.1569 17.7117C14.0836 17.4733 13.9408 17.2663 13.7286 17.0908C13.5164 16.9153 13.2452 16.7175 12.9151 16.4974ZM11.9209 12.7366C12.0859 12.7366 12.2418 12.7051 12.3885 12.6422C12.5378 12.5767 12.6675 12.4798 12.7776 12.3514C12.9426 12.1497 13.0618 11.8916 13.1352 11.5773C13.2085 11.2655 13.2269 10.9341 13.1902 10.583C13.0985 9.9752 12.8588 9.44075 12.471 8.97965C12.0859 8.51855 11.6628 8.288 11.2017 8.288H11.1742C11.0091 8.288 10.852 8.32075 10.7026 8.38625C10.5559 8.45174 10.4275 8.54868 10.3175 8.67705C10.1524 8.87878 10.0332 9.12767 9.95988 9.42372C9.8839 9.71715 9.86426 10.0394 9.90093 10.3905C9.99525 11.0166 10.235 11.5602 10.6201 12.0213C11.0078 12.4798 11.4323 12.7182 11.8934 12.7366H11.9209ZM14.8211 0C12.8693 0 11.0367 0.368094 9.32325 1.10428C7.60985 1.86143 6.11258 2.87925 4.83146 4.15775C3.55296 5.43888 2.53513 6.93614 1.77799 8.64954C1.0418 10.3629 0.673706 12.1956 0.673706 14.1474C0.673706 16.0992 1.0418 17.9318 1.77799 19.6452C2.53513 21.3586 3.55296 22.8559 4.83146 24.137C6.11258 25.4155 7.60985 26.4333 9.32325 27.1905C11.0367 27.9266 12.8693 28.2947 14.8211 28.2947C16.7729 28.2947 18.6055 27.9266 20.3189 27.1905C22.0323 26.4333 23.5296 25.4155 24.8107 24.137C26.0892 22.8559 27.107 21.3586 27.8642 19.6452C28.6003 17.9318 28.9684 16.0992 28.9684 14.1474C28.9684 12.1956 28.6003 10.3629 27.8642 8.64954C27.107 6.93614 26.0892 5.43888 24.8107 4.15775C23.5296 2.87925 22.0323 1.86143 20.3189 1.10428C18.6055 0.368094 16.7729 0 14.8211 0ZM13.1902 21.0285C12.9151 21.1202 12.6348 21.1844 12.3492 21.2211C12.0636 21.2577 11.7728 21.2761 11.4768 21.2761C11.1283 21.2761 10.793 21.2577 10.4708 21.2211C10.1485 21.1844 9.83937 21.1202 9.54332 21.0285C8.95385 20.8818 8.4469 20.6748 8.02248 20.4076C7.60068 20.1404 7.2876 19.822 7.08325 19.4526C7.00989 19.3059 6.95095 19.1487 6.90641 18.9811C6.85925 18.816 6.83567 18.6418 6.83567 18.4584C6.83567 18.2933 6.85925 18.1178 6.90641 17.9318C6.95095 17.7484 7.00989 17.5742 7.08325 17.4091C7.39764 16.7096 7.9465 16.1516 8.72985 15.735C9.51057 15.3211 10.362 15.1141 11.2842 15.1141C11.3026 15.1141 11.317 15.1141 11.3275 15.1141C11.3353 15.1141 11.3392 15.1141 11.3392 15.1141C11.2659 14.9674 11.2109 14.8246 11.1742 14.6858C11.1375 14.5469 11.1192 14.4041 11.1192 14.2574C11.1192 14.184 11.1231 14.1107 11.131 14.0373C11.1414 13.964 11.1559 13.8906 11.1742 13.8173C10.197 13.7989 9.3822 13.4675 8.72985 12.823C8.07488 12.1759 7.74739 11.3834 7.74739 10.4455C7.74739 9.7643 7.99104 9.12898 8.47834 8.53951C8.96826 7.95003 9.59048 7.52561 10.345 7.26625C10.5834 7.19289 10.8179 7.13394 11.0484 7.0894C11.279 7.04225 11.5056 7.01867 11.7283 7.01867H15.9529C16.0079 7.01867 16.0681 7.04225 16.1336 7.0894C16.1991 7.13394 16.2411 7.19289 16.2594 7.26625C16.2777 7.32126 16.2777 7.38545 16.2594 7.45881C16.2411 7.53478 16.2044 7.59111 16.1494 7.62779L15.2062 8.31551C15.1695 8.33385 15.1328 8.34826 15.0962 8.35874C15.0595 8.3666 15.0228 8.37053 14.9861 8.37053H14.656C14.8761 8.62989 15.0464 8.93904 15.1669 9.29797C15.2874 9.65689 15.3477 10.0486 15.3477 10.473C15.3477 10.9341 15.2363 11.3755 15.0136 11.7973C14.7936 12.2218 14.4713 12.6003 14.0469 12.9331C13.7168 13.1898 13.519 13.3732 13.4535 13.4832C13.388 13.5933 13.3553 13.7229 13.3553 13.8723C13.3553 13.9456 13.4522 14.0924 13.6461 14.3124C13.8399 14.5351 14.0652 14.729 14.322 14.894C14.9115 15.3185 15.3267 15.756 15.5677 16.2066C15.8062 16.6572 15.9254 17.2231 15.9254 17.9043C15.9254 18.6221 15.6765 19.2627 15.1787 19.826C14.6835 20.3866 14.0207 20.7875 13.1902 21.0285ZM22.6964 13.8173C22.6964 13.909 22.6637 13.9862 22.5982 14.0491C22.5353 14.1146 22.458 14.1474 22.3663 14.1474H19.9613V16.5524C19.9613 16.6441 19.9285 16.7214 19.863 16.7843C19.8002 16.8498 19.7216 16.8825 19.6272 16.8825H18.967C18.8753 16.8825 18.7967 16.8498 18.7313 16.7843C18.6658 16.7214 18.633 16.6441 18.633 16.5524V14.1474H16.2319C16.1376 14.1474 16.059 14.1146 15.9961 14.0491C15.9306 13.9862 15.8978 13.909 15.8978 13.8173V13.1531C15.8978 13.0614 15.9306 12.9828 15.9961 12.9173C16.059 12.8545 16.1376 12.823 16.2319 12.823H18.633V10.418C18.633 10.3263 18.6658 10.2477 18.7313 10.1822C18.7967 10.1167 18.8753 10.0839 18.967 10.0839H19.6272C19.7216 10.0839 19.8002 10.1167 19.863 10.1822C19.9285 10.2477 19.9613 10.3263 19.9613 10.418V12.823H22.3663C22.458 12.823 22.5353 12.8545 22.5982 12.9173C22.6637 12.9828 22.6964 13.0614 22.6964 13.1531V13.8173Z" fill="#D4D4D4"/>
</svg>
