<svg width="1440" height="755" viewBox="0 0 1440 755" fill="none" xmlns="http://www.w3.org/2000/svg">
<rect width="1440" height="721.516" fill="#2D2D2D"/>
<g opacity="0.02">
<path d="M118.803 207.678V186.272H231.268V207.678H187.7V327.232H162.371V207.678H118.803ZM283.319 329.296C272.72 329.296 263.565 327.094 255.857 322.689C248.194 318.238 242.298 311.952 238.168 303.83C234.038 295.663 231.973 286.05 231.973 274.991C231.973 264.117 234.038 254.572 238.168 246.359C242.344 238.1 248.171 231.676 255.65 227.087C263.13 222.453 271.917 220.136 282.011 220.136C288.527 220.136 294.676 221.191 300.457 223.302C306.285 225.366 311.424 228.578 315.875 232.938C320.371 237.297 323.904 242.849 326.474 249.594C329.044 256.293 330.328 264.277 330.328 273.546V281.186H243.674V264.392H306.445C306.399 259.62 305.367 255.375 303.348 251.659C301.329 247.896 298.507 244.937 294.882 242.78C291.303 240.623 287.127 239.545 282.355 239.545C277.262 239.545 272.788 240.784 268.934 243.262C265.08 245.694 262.074 248.906 259.918 252.898C257.807 256.844 256.729 261.18 256.683 265.906V280.566C256.683 286.715 257.807 291.992 260.055 296.397C262.304 300.756 265.447 304.105 269.485 306.446C273.522 308.74 278.249 309.887 283.663 309.887C287.288 309.887 290.569 309.382 293.505 308.373C296.442 307.317 298.989 305.78 301.145 303.761C303.302 301.742 304.931 299.242 306.032 296.259L329.296 298.875C327.828 305.023 325.029 310.392 320.899 314.98C316.815 319.523 311.584 323.056 305.206 325.58C298.828 328.058 291.532 329.296 283.319 329.296ZM434.964 249.456L412.251 251.934C411.608 249.64 410.484 247.483 408.878 245.464C407.318 243.445 405.207 241.816 402.546 240.577C399.885 239.339 396.627 238.719 392.772 238.719C387.587 238.719 383.228 239.843 379.695 242.092C376.208 244.34 374.487 247.254 374.533 250.833C374.487 253.907 375.611 256.408 377.906 258.335C380.246 260.262 384.1 261.845 389.469 263.084L407.501 266.938C417.504 269.095 424.938 272.514 429.802 277.194C434.711 281.874 437.189 288 437.235 295.571C437.189 302.224 435.239 308.097 431.385 313.191C427.576 318.238 422.276 322.184 415.485 325.029C408.694 327.874 400.894 329.296 392.084 329.296C379.144 329.296 368.728 326.589 360.836 321.175C352.944 315.714 348.241 308.12 346.727 298.393L371.023 296.053C372.124 300.825 374.464 304.427 378.043 306.859C381.622 309.29 386.28 310.506 392.015 310.506C397.934 310.506 402.683 309.29 406.263 306.859C409.887 304.427 411.7 301.421 411.7 297.842C411.7 294.814 410.53 292.313 408.19 290.34C405.895 288.367 402.316 286.853 397.453 285.797L379.42 282.012C369.279 279.901 361.777 276.345 356.913 271.343C352.049 266.296 349.64 259.918 349.686 252.209C349.64 245.694 351.407 240.05 354.986 235.278C358.611 230.46 363.635 226.743 370.059 224.128C376.529 221.466 383.985 220.136 392.428 220.136C404.817 220.136 414.568 222.774 421.68 228.051C428.838 233.328 433.266 240.463 434.964 249.456ZM510.571 221.512V240.784H449.796V221.512H510.571ZM464.801 196.184H489.716V295.433C489.716 298.783 490.221 301.352 491.23 303.142C492.286 304.885 493.662 306.079 495.36 306.721C497.058 307.363 498.939 307.684 501.004 307.684C502.564 307.684 503.986 307.57 505.271 307.34C506.602 307.111 507.611 306.904 508.3 306.721L512.498 326.199C511.168 326.658 509.263 327.163 506.785 327.713C504.354 328.264 501.371 328.585 497.838 328.677C491.597 328.86 485.977 327.92 480.975 325.855C475.974 323.744 472.005 320.486 469.068 316.081C466.177 311.676 464.755 306.17 464.801 299.563V196.184ZM531.409 327.232V221.512H556.324V327.232H531.409ZM543.935 206.508C539.989 206.508 536.594 205.2 533.749 202.585C530.904 199.923 529.481 196.734 529.481 193.017C529.481 189.255 530.904 186.066 533.749 183.45C536.594 180.789 539.989 179.458 543.935 179.458C547.927 179.458 551.323 180.789 554.122 183.45C556.967 186.066 558.389 189.255 558.389 193.017C558.389 196.734 556.967 199.923 554.122 202.585C551.323 205.2 547.927 206.508 543.935 206.508ZM581.945 327.232V221.512H605.76V239.476H606.999C609.201 233.419 612.849 228.693 617.942 225.298C623.036 221.856 629.115 220.136 636.182 220.136C643.34 220.136 649.374 221.879 654.283 225.366C659.239 228.808 662.726 233.511 664.745 239.476H665.846C668.187 233.603 672.133 228.923 677.685 225.435C683.283 221.902 689.913 220.136 697.576 220.136C707.304 220.136 715.242 223.21 721.39 229.358C727.539 235.507 730.613 244.478 730.613 256.27V327.232H705.629V260.125C705.629 253.563 703.885 248.768 700.398 245.74C696.911 242.665 692.643 241.128 687.596 241.128C681.585 241.128 676.882 243.009 673.486 246.772C670.137 250.489 668.462 255.33 668.462 261.295V327.232H644.028V259.092C644.028 253.632 642.376 249.273 639.072 246.015C635.815 242.757 631.547 241.128 626.27 241.128C622.691 241.128 619.434 242.046 616.497 243.881C613.56 245.671 611.22 248.217 609.476 251.521C607.733 254.779 606.861 258.587 606.861 262.946V327.232H581.945ZM802.005 329.296C791.681 329.296 782.733 327.025 775.162 322.482C767.591 317.94 761.718 311.585 757.542 303.417C753.413 295.25 751.348 285.705 751.348 274.785C751.348 263.864 753.413 254.297 757.542 246.084C761.718 237.87 767.591 231.492 775.162 226.95C782.733 222.407 791.681 220.136 802.005 220.136C812.329 220.136 821.277 222.407 828.848 226.95C836.419 231.492 842.269 237.87 846.399 246.084C850.574 254.297 852.662 263.864 852.662 274.785C852.662 285.705 850.574 295.25 846.399 303.417C842.269 311.585 836.419 317.94 828.848 322.482C821.277 327.025 812.329 329.296 802.005 329.296ZM802.143 309.336C807.741 309.336 812.421 307.799 816.183 304.725C819.946 301.605 822.745 297.429 824.58 292.198C826.462 286.967 827.402 281.14 827.402 274.716C827.402 268.246 826.462 262.396 824.58 257.165C822.745 251.888 819.946 247.69 816.183 244.569C812.421 241.449 807.741 239.889 802.143 239.889C796.407 239.889 791.635 241.449 787.826 244.569C784.064 247.69 781.242 251.888 779.361 257.165C777.525 262.396 776.607 268.246 776.607 274.716C776.607 281.14 777.525 286.967 779.361 292.198C781.242 297.429 784.064 301.605 787.826 304.725C791.635 307.799 796.407 309.336 802.143 309.336ZM898.725 265.287V327.232H873.809V221.512H897.624V239.476H898.863C901.295 233.557 905.172 228.854 910.495 225.366C915.863 221.879 922.494 220.136 930.386 220.136C937.682 220.136 944.037 221.696 949.451 224.816C954.912 227.936 959.133 232.456 962.115 238.375C965.144 244.294 966.635 251.475 966.589 259.918V327.232H941.674V263.772C941.674 256.706 939.838 251.177 936.167 247.185C932.542 243.193 927.518 241.197 921.094 241.197C916.735 241.197 912.858 242.16 909.462 244.088C906.113 245.969 903.474 248.699 901.547 252.278C899.666 255.857 898.725 260.193 898.725 265.287ZM991.918 327.232V221.512H1016.83V327.232H991.918ZM1004.44 206.508C1000.5 206.508 997.103 205.2 994.258 202.585C991.413 199.923 989.991 196.734 989.991 193.017C989.991 189.255 991.413 186.066 994.258 183.45C997.103 180.789 1000.5 179.458 1004.44 179.458C1008.44 179.458 1011.83 180.789 1014.63 183.45C1017.48 186.066 1018.9 189.255 1018.9 193.017C1018.9 196.734 1017.48 199.923 1014.63 202.585C1011.83 205.2 1008.44 206.508 1004.44 206.508ZM1072.88 329.365C1066.18 329.365 1060.14 328.172 1054.77 325.786C1049.45 323.354 1045.23 319.775 1042.11 315.049C1039.04 310.323 1037.5 304.495 1037.5 297.567C1037.5 291.602 1038.6 286.669 1040.8 282.769C1043.01 278.869 1046.01 275.748 1049.82 273.408C1053.63 271.068 1057.92 269.302 1062.69 268.109C1067.51 266.87 1072.49 265.975 1077.63 265.424C1083.82 264.782 1088.84 264.208 1092.7 263.704C1096.55 263.153 1099.35 262.327 1101.1 261.226C1102.89 260.079 1103.78 258.312 1103.78 255.926V255.513C1103.78 250.328 1102.24 246.313 1099.17 243.468C1096.09 240.623 1091.67 239.201 1085.88 239.201C1079.78 239.201 1074.94 240.532 1071.36 243.193C1067.83 245.854 1065.44 248.997 1064.2 252.622L1040.94 249.319C1042.78 242.895 1045.8 237.526 1050.03 233.213C1054.25 228.854 1059.41 225.596 1065.51 223.439C1071.61 221.237 1078.36 220.136 1085.75 220.136C1090.84 220.136 1095.91 220.732 1100.96 221.925C1106.01 223.118 1110.62 225.091 1114.79 227.844C1118.97 230.552 1122.32 234.245 1124.84 238.926C1127.41 243.606 1128.7 249.456 1128.7 256.477V327.232H1104.74V312.709H1103.92C1102.4 315.646 1100.27 318.399 1097.52 320.968C1094.81 323.492 1091.39 325.534 1087.26 327.094C1083.18 328.608 1078.38 329.365 1072.88 329.365ZM1079.35 311.057C1084.35 311.057 1088.68 310.071 1092.35 308.097C1096.03 306.079 1098.85 303.417 1100.82 300.113C1102.84 296.81 1103.85 293.208 1103.85 289.307V276.85C1103.07 277.492 1101.74 278.089 1099.86 278.639C1098.02 279.19 1095.96 279.672 1093.66 280.085C1091.37 280.498 1089.1 280.865 1086.85 281.186C1084.6 281.507 1082.65 281.782 1081 282.012C1077.28 282.516 1073.95 283.342 1071.02 284.49C1068.08 285.637 1065.76 287.243 1064.07 289.307C1062.37 291.326 1061.52 293.942 1061.52 297.154C1061.52 301.742 1063.19 305.207 1066.54 307.547C1069.89 309.887 1074.16 311.057 1079.35 311.057ZM1178.66 186.272V327.232H1153.75V186.272H1178.66ZM1287.84 249.456L1265.13 251.934C1264.49 249.64 1263.36 247.483 1261.76 245.464C1260.2 243.445 1258.09 241.816 1255.42 240.577C1252.76 239.339 1249.51 238.719 1245.65 238.719C1240.47 238.719 1236.11 239.843 1232.57 242.092C1229.09 244.34 1227.37 247.254 1227.41 250.833C1227.37 253.907 1228.49 256.408 1230.78 258.335C1233.12 260.262 1236.98 261.845 1242.35 263.084L1260.38 266.938C1270.38 269.095 1277.82 272.514 1282.68 277.194C1287.59 281.874 1290.07 288 1290.11 295.571C1290.07 302.224 1288.12 308.097 1284.26 313.191C1280.46 318.238 1275.16 322.184 1268.36 325.029C1261.57 327.874 1253.77 329.296 1244.96 329.296C1232.02 329.296 1221.61 326.589 1213.72 321.175C1205.82 315.714 1201.12 308.12 1199.61 298.393L1223.9 296.053C1225 300.825 1227.34 304.427 1230.92 306.859C1234.5 309.29 1239.16 310.506 1244.89 310.506C1250.81 310.506 1255.56 309.29 1259.14 306.859C1262.77 304.427 1264.58 301.421 1264.58 297.842C1264.58 294.814 1263.41 292.313 1261.07 290.34C1258.77 288.367 1255.2 286.853 1250.33 285.797L1232.3 282.012C1222.16 279.901 1214.66 276.345 1209.79 271.343C1204.93 266.296 1202.52 259.918 1202.57 252.209C1202.52 245.694 1204.29 240.05 1207.87 235.278C1211.49 230.46 1216.51 226.743 1222.94 224.128C1229.41 221.466 1236.86 220.136 1245.31 220.136C1257.7 220.136 1267.45 222.774 1274.56 228.051C1281.72 233.328 1286.15 240.463 1287.84 249.456Z" fill="white"/>
</g>
</svg>
